<?xml version="1.0" encoding="utf-8"?>
<!-- Generator: Adobe Illustrator 24.1.0, SVG Export Plug-In . SVG Version: 6.00 Build 0)  -->
<svg version="1.1" id="Capa_1" xmlns="http://www.w3.org/2000/svg" xmlns:xlink="http://www.w3.org/1999/xlink" x="0px" y="0px"
	 viewBox="0 0 1058.83 586.76" style="enable-background:new 0 0 1058.83 586.76;" xml:space="preserve">
<style type="text/css">
	.st0{fill:#5FC4E5;}
</style>
<g>
	<path class="st0" d="M217.47,559.28L19.31,27.48h148.62l77.85,224.44c4.05,11.47,8.93,26.64,14.66,45.5
		c5.72,18.88,11.63,38.77,17.69,59.65c6.07,20.9,11.13,39.78,15.17,56.62h5.06c4.71-15.5,9.76-33.52,15.17-54.1
		c5.39-20.55,10.94-40.44,16.68-59.65c5.72-19.21,10.62-35.21,14.66-48.02l77.85-224.44h141.55l-199.17,531.8H217.47z"/>
	<path class="st0" d="M841.36,27.48l198.16,531.8H890.9l-77.85-224.44c-4.05-11.47-8.93-26.63-14.66-45.5
		c-5.72-18.88-11.63-38.77-17.69-59.65c-6.07-20.9-11.13-39.78-15.17-56.62h-5.06c-4.71,15.5-9.76,33.52-15.17,54.1
		c-5.39,20.55-10.94,40.44-16.68,59.65c-5.72,19.21-10.62,35.21-14.66,48.02l-77.85,224.44H494.57l199.17-531.8H841.36z"/>
</g>
</svg>
